
<svg width="86px" height="31px" viewBox="0 0 86 31" version="1.1" xmlns="http://www.w3.org/2000/svg" xmlns:xlink="http://www.w3.org/1999/xlink">
    <g id="r" stroke="none" stroke-width="1" fill="none" fill-rule="evenodd">
        <g id="iPhone-13-Pro" transform="translate(-151.000000, -24.000000)" fill="#FFFFFF" fill-rule="nonzero">
            <g id="Logo" transform="translate(151.330000, 24.928000)">
                <path d="M1.837,29.072 L3.663,23.572 L4.389,23.572 L2.563,29.072 L1.837,29.072 Z M1.826,29.072 L0,23.572 L0.726,23.572 L2.552,29.072 L1.826,29.072 Z M8.129,29.072 L8.129,25.222 L8.855,25.222 L8.855,29.072 L8.129,29.072 Z M6.754,29.237 L6.754,28.577 C7.04733333,28.577 7.29483333,28.5036667 7.4965,28.357 C7.69816667,28.2103333 7.854,27.9958333 7.964,27.7135 C8.074,27.4311667 8.129,27.0956667 8.129,26.707 L8.547,26.707 C8.547,27.2056667 8.47,27.6456667 8.316,28.027 C8.162,28.4083333 7.95116667,28.7053333 7.6835,28.918 C7.41583333,29.1306667 7.106,29.237 6.754,29.237 Z M6.754,29.237 C6.43866667,29.237 6.14716667,29.16 5.8795,29.006 C5.61183333,28.852 5.39733333,28.6411667 5.236,28.3735 C5.07466667,28.1058333 4.994,27.807 4.994,27.477 L5.72,27.477 C5.72,27.7923333 5.82633333,28.0545 6.039,28.2635 C6.25166667,28.4725 6.49,28.577 6.754,28.577 L6.754,29.237 Z M4.994,27.477 C4.994,27.1396667 5.0765,26.8408333 5.2415,26.5805 C5.4065,26.3201667 5.63016667,26.113 5.9125,25.959 C6.19483333,25.805 6.512,25.728 6.864,25.728 L6.864,26.388 C6.54133333,26.388 6.27,26.4906667 6.05,26.696 C5.83,26.9013333 5.72,27.1616667 5.72,27.477 L4.994,27.477 Z M6.864,26.388 L6.864,25.728 L8.712,25.728 L8.712,26.388 L6.864,26.388 Z M8.129,26.707 L8.129,25.211 L8.547,25.211 L8.547,26.707 L8.129,26.707 Z M8.855,25.222 L8.129,25.222 C8.129,24.8993333 8.019,24.6316667 7.799,24.419 C7.579,24.2063333 7.304,24.1 6.974,24.1 L6.974,23.407 C7.33333333,23.407 7.65416667,23.4858333 7.9365,23.6435 C8.21883333,23.8011667 8.4425,24.0175 8.6075,24.2925 C8.7725,24.5675 8.855,24.8773333 8.855,25.222 Z M5.819,25.09 L5.115,24.936 C5.15166667,24.6426667 5.25616667,24.3823333 5.4285,24.155 C5.60083333,23.9276667 5.82266667,23.7461667 6.094,23.6105 C6.36533333,23.4748333 6.65866667,23.407 6.974,23.407 L6.974,24.1 C6.68066667,24.1 6.424,24.1788333 6.204,24.3365 C5.984,24.4941667 5.85566667,24.7453333 5.819,25.09 Z M10.01,29.072 L10.01,23.572 L10.736,23.572 L10.736,29.072 L10.01,29.072 Z M13.057,29.072 L13.057,25.222 L13.783,25.222 L13.783,29.072 L13.057,29.072 Z M13.057,25.222 C13.057,24.9066667 12.947,24.6463333 12.727,24.441 C12.507,24.2356667 12.232,24.133 11.902,24.133 L12.056,23.407 C12.386,23.407 12.6811667,23.4858333 12.9415,23.6435 C13.2018333,23.8011667 13.4071667,24.0175 13.5575,24.2925 C13.7078333,24.5675 13.783,24.8773333 13.783,25.222 L13.057,25.222 Z M10.318,25.222 C10.318,24.8773333 10.395,24.5675 10.549,24.2925 C10.703,24.0175 10.9101667,23.8011667 11.1705,23.6435 C11.4308333,23.4858333 11.726,23.407 12.056,23.407 L11.902,24.133 C11.5646667,24.133 11.286,24.2356667 11.066,24.441 C10.846,24.6463333 10.736,24.9066667 10.736,25.222 L10.318,25.222 Z M17.094,24.914 L19.437,21.372 L20.207,21.372 L17.864,24.914 L17.094,24.914 Z M19.58,29.072 L17.094,24.914 L17.864,24.914 L20.35,29.072 L19.58,29.072 Z M16.918,29.072 L16.918,21.372 L17.644,21.372 L17.644,29.072 L16.918,29.072 Z M23.661,27.268 L23.661,25.376 L24.387,25.376 L24.387,27.268 L23.661,27.268 Z M20.625,27.268 L20.625,25.376 L21.351,25.376 L21.351,27.268 L20.625,27.268 Z M22.484,24.1 L22.484,23.407 L22.528,23.407 L22.528,24.1 L22.484,24.1 Z M22.484,29.237 L22.484,28.544 L22.528,28.544 L22.528,29.237 L22.484,29.237 Z M20.625,25.387 C20.625,25.0056667 20.7075,24.6665 20.8725,24.3695 C21.0375,24.0725 21.2611667,23.8378333 21.5435,23.6655 C21.8258333,23.4931667 22.1466667,23.407 22.506,23.407 L22.506,24.1 C22.1466667,24.1 21.8643333,24.2118333 21.659,24.4355 C21.4536667,24.6591667 21.351,24.9763333 21.351,25.387 L20.625,25.387 Z M24.387,25.387 L23.661,25.387 C23.661,24.9763333 23.5601667,24.6591667 23.3585,24.4355 C23.1568333,24.2118333 22.8726667,24.1 22.506,24.1 L22.506,23.407 C22.8653333,23.407 23.1861667,23.4931667 23.4685,23.6655 C23.7508333,23.8378333 23.9745,24.0725 24.1395,24.3695 C24.3045,24.6665 24.387,25.0056667 24.387,25.387 Z M20.625,27.257 L21.351,27.257 C21.351,27.6603333 21.4536667,27.9756667 21.659,28.203 C21.8643333,28.4303333 22.1466667,28.544 22.506,28.544 L22.506,29.237 C22.1466667,29.237 21.8258333,29.1508333 21.5435,28.9785 C21.2611667,28.8061667 21.0375,28.5715 20.8725,28.2745 C20.7075,27.9775 20.625,27.6383333 20.625,27.257 Z M24.387,27.257 C24.387,27.6383333 24.3045,27.9775 24.1395,28.2745 C23.9745,28.5715 23.7508333,28.8061667 23.4685,28.9785 C23.1861667,29.1508333 22.8653333,29.237 22.506,29.237 L22.506,28.544 C22.8726667,28.544 23.1568333,28.4303333 23.3585,28.203 C23.5601667,27.9756667 23.661,27.6603333 23.661,27.257 L24.387,27.257 Z M28.193,27.268 L28.193,25.376 L28.919,25.376 L28.919,27.268 L28.193,27.268 Z M25.157,27.268 L25.157,25.376 L25.883,25.376 L25.883,27.268 L25.157,27.268 Z M27.016,24.1 L27.016,23.407 L27.06,23.407 L27.06,24.1 L27.016,24.1 Z M27.016,29.237 L27.016,28.544 L27.06,28.544 L27.06,29.237 L27.016,29.237 Z M25.157,25.387 C25.157,25.0056667 25.2395,24.6665 25.4045,24.3695 C25.5695,24.0725 25.7931667,23.8378333 26.0755,23.6655 C26.3578333,23.4931667 26.6786667,23.407 27.038,23.407 L27.038,24.1 C26.6786667,24.1 26.3963333,24.2118333 26.191,24.4355 C25.9856667,24.6591667 25.883,24.9763333 25.883,25.387 L25.157,25.387 Z M28.919,25.387 L28.193,25.387 C28.193,24.9763333 28.0921667,24.6591667 27.8905,24.4355 C27.6888333,24.2118333 27.4046667,24.1 27.038,24.1 L27.038,23.407 C27.3973333,23.407 27.7181667,23.4931667 28.0005,23.6655 C28.2828333,23.8378333 28.5065,24.0725 28.6715,24.3695 C28.8365,24.6665 28.919,25.0056667 28.919,25.387 Z M25.157,27.257 L25.883,27.257 C25.883,27.6603333 25.9856667,27.9756667 26.191,28.203 C26.3963333,28.4303333 26.6786667,28.544 27.038,28.544 L27.038,29.237 C26.6786667,29.237 26.3578333,29.1508333 26.0755,28.9785 C25.7931667,28.8061667 25.5695,28.5715 25.4045,28.2745 C25.2395,27.9775 25.157,27.6383333 25.157,27.257 Z M28.919,27.257 C28.919,27.6383333 28.8365,27.9775 28.6715,28.2745 C28.5065,28.5715 28.2828333,28.8061667 28.0005,28.9785 C27.7181667,29.1508333 27.3973333,29.237 27.038,29.237 L27.038,28.544 C27.4046667,28.544 27.6888333,28.4303333 27.8905,28.203 C28.0921667,27.9756667 28.193,27.6603333 28.193,27.257 L28.919,27.257 Z M30.327,27.543 L30.327,21.361 L31.053,21.372 L31.053,27.543 L30.327,27.543 Z M29.689,24.232 L29.689,23.572 L32.439,23.572 L32.439,24.232 L29.689,24.232 Z M30.327,27.532 L31.053,27.532 C31.053,27.7446667 31.0841667,27.9261667 31.1465,28.0765 C31.2088333,28.2268333 31.2968333,28.3423333 31.4105,28.423 C31.5241667,28.5036667 31.6616667,28.544 31.823,28.544 L31.768,29.237 C31.3206667,29.237 30.9686667,29.0866667 30.712,28.786 C30.4553333,28.4853333 30.327,28.0673333 30.327,27.532 Z M32.34,28.357 L32.659,28.929 C32.5416667,29.0243333 32.4041667,29.0995 32.2465,29.1545 C32.0888333,29.2095 31.9293333,29.237 31.768,29.237 L31.823,28.544 C31.9183333,28.544 32.0081667,28.5256667 32.0925,28.489 C32.1768333,28.4523333 32.2593333,28.4083333 32.34,28.357 Z M33.165,26.575 L33.165,25.948 L36.861,25.948 L36.861,26.575 L33.165,26.575 Z M34.969,29.248 L34.969,28.555 L35.013,28.555 L35.013,29.248 L34.969,29.248 Z M33.099,27.268 L33.099,25.387 L33.825,25.387 L33.825,27.268 L33.099,27.268 Z M36.135,25.948 L36.135,25.222 L36.861,25.222 L36.861,25.948 L36.135,25.948 Z M36.861,25.222 L36.135,25.222 C36.135,24.8993333 36.025,24.6316667 35.805,24.419 C35.585,24.2063333 35.31,24.1 34.98,24.1 L34.98,23.407 C35.3393333,23.407 35.6601667,23.4858333 35.9425,23.6435 C36.2248333,23.8011667 36.4485,24.0175 36.6135,24.2925 C36.7785,24.5675 36.861,24.8773333 36.861,25.222 Z M36.157,27.565 L36.861,27.719 C36.8243333,28.005 36.7198333,28.2635 36.5475,28.4945 C36.3751667,28.7255 36.1551667,28.9088333 35.8875,29.0445 C35.6198333,29.1801667 35.3246667,29.248 35.002,29.248 L35.002,28.555 C35.2953333,28.555 35.552,28.4743333 35.772,28.313 C35.992,28.1516667 36.1203333,27.9023333 36.157,27.565 Z M33.099,25.387 C33.099,25.0056667 33.1815,24.6665 33.3465,24.3695 C33.5115,24.0725 33.7351667,23.8378333 34.0175,23.6655 C34.2998333,23.4931667 34.6206667,23.407 34.98,23.407 L34.98,24.1 C34.6206667,24.1 34.3383333,24.2118333 34.133,24.4355 C33.9276667,24.6591667 33.825,24.9763333 33.825,25.387 L33.099,25.387 Z M33.099,27.268 L33.825,27.268 C33.825,27.6713333 33.9276667,27.9866667 34.133,28.214 C34.3383333,28.4413333 34.6206667,28.555 34.98,28.555 L34.98,29.248 C34.6206667,29.248 34.2998333,29.1618333 34.0175,28.9895 C33.7351667,28.8171667 33.5115,28.5825 33.3465,28.2855 C33.1815,27.9885 33.099,27.6493333 33.099,27.268 Z M37.906,29.072 L37.906,23.572 L38.632,23.572 L38.632,29.072 L37.906,29.072 Z M40.953,29.072 L40.953,25.222 L41.679,25.222 L41.679,29.072 L40.953,29.072 Z M40.953,25.222 C40.953,24.9066667 40.843,24.6463333 40.623,24.441 C40.403,24.2356667 40.128,24.133 39.798,24.133 L39.952,23.407 C40.282,23.407 40.5771667,23.4858333 40.8375,23.6435 C41.0978333,23.8011667 41.3031667,24.0175 41.4535,24.2925 C41.6038333,24.5675 41.679,24.8773333 41.679,25.222 L40.953,25.222 Z M38.214,25.222 C38.214,24.8773333 38.291,24.5675 38.445,24.2925 C38.599,24.0175 38.8061667,23.8011667 39.0665,23.6435 C39.3268333,23.4858333 39.622,23.407 39.952,23.407 L39.798,24.133 C39.4606667,24.133 39.182,24.2356667 38.962,24.441 C38.742,24.6463333 38.632,24.9066667 38.632,25.222 L38.214,25.222 Z M2.174,18.072 L2.174,15.804 L8.15,15.804 L8.15,18.072 L2.174,18.072 Z M0.11,18.072 L0.11,1.032 L2.894,1.032 L2.894,18.072 L0.11,18.072 Z M19.346,5.832 L19.346,18.072 L16.562,18.072 L16.562,5.832 L19.346,5.832 Z M12.494,5.832 L12.494,13.956 L9.71,13.956 L9.71,5.832 L12.494,5.832 Z M12.494,13.944 C12.494,14.608 12.676,15.14 13.04,15.54 C13.404,15.94 13.878,16.14 14.462,16.14 L13.694,18.444 C12.934,18.444 12.254,18.248 11.654,17.856 C11.054,17.464 10.58,16.928 10.232,16.248 C9.884,15.568 9.71,14.8 9.71,13.944 L12.494,13.944 Z M17.57,13.824 C17.57,14.704 17.402,15.492 17.066,16.188 C16.73,16.884 16.268,17.434 15.68,17.838 C15.092,18.242 14.43,18.444 13.694,18.444 L14.462,16.14 C15.086,16.14 15.592,15.928 15.98,15.504 C16.368,15.08 16.562,14.52 16.562,13.824 L17.57,13.824 Z M31.502,5.832 L31.502,18.072 L28.718,18.072 L28.718,5.832 L31.502,5.832 Z M24.65,5.832 L24.65,13.956 L21.866,13.956 L21.866,5.832 L24.65,5.832 Z M24.65,13.944 C24.65,14.608 24.832,15.14 25.196,15.54 C25.56,15.94 26.034,16.14 26.618,16.14 L25.85,18.444 C25.09,18.444 24.41,18.248 23.81,17.856 C23.21,17.464 22.736,16.928 22.388,16.248 C22.04,15.568 21.866,14.8 21.866,13.944 L24.65,13.944 Z M29.726,13.824 C29.726,14.704 29.558,15.492 29.222,16.188 C28.886,16.884 28.424,17.434 27.836,17.838 C27.248,18.242 26.586,18.444 25.85,18.444 L26.618,16.14 C27.242,16.14 27.748,15.928 28.136,15.504 C28.524,15.08 28.718,14.52 28.718,13.824 L29.726,13.824 Z M40.718,18.072 L36.386,11.328 L39.122,10.632 L43.646,18.072 L40.718,18.072 Z M36.782,13.992 L34.538,12.864 L40.118,5.832 L43.322,5.832 L36.782,13.992 Z M34.382,18.072 L34.382,0.66 L37.166,0.66 L37.166,18.072 L34.382,18.072 Z M48.1605,29.704 C47.1335,29.704 46.2908333,29.3748333 45.6325,28.7165 C44.9741667,28.0581667 44.645,27.2155 44.645,26.1885 C44.645,25.1878333 44.9741667,24.3385833 45.6325,23.64075 C46.2908333,22.9429167 47.1335,22.594 48.1605,22.594 C49.1611667,22.594 50.0104167,22.9429167 50.70825,23.64075 C51.4060833,24.3385833 51.755,25.1878333 51.755,26.1885 C51.755,27.2155 51.4060833,28.0581667 50.70825,28.7165 C50.0104167,29.3748333 49.1611667,29.704 48.1605,29.704 Z M56.1,29.072 L56.1,8.532 L62.657,8.532 L62.657,29.072 L56.1,29.072 Z M67.713,29.072 L67.713,16.1555 L74.27,16.1555 L74.27,29.072 L67.713,29.072 Z M67.713,16.195 C67.713,15.1416667 67.5089167,14.3253333 67.10075,13.746 C66.6925833,13.1666667 66.1198333,12.877 65.3825,12.877 L67.3575,7.9 C68.6741667,7.9 69.8525833,8.26208333 70.89275,8.98625 C71.9329167,9.71041667 72.7558333,10.6979167 73.3615,11.94875 C73.9671667,13.1995833 74.27,14.615 74.27,16.195 L67.713,16.195 Z M60.84,16.59 C60.84,14.931 61.1230833,13.4431667 61.68925,12.1265 C62.2554167,10.8098333 63.03225,9.77625 64.01975,9.02575 C65.00725,8.27525 66.1198333,7.9 67.3575,7.9 L65.3825,12.877 C64.5398333,12.877 63.8749167,13.2061667 63.38775,13.8645 C62.9005833,14.5228333 62.657,15.4313333 62.657,16.59 L60.84,16.59 Z M78.4175,29.072 L78.4175,0 L84.9745,0 L84.9745,29.072 L78.4175,29.072 Z" id="Combined-Shape"></path>
            </g>
        </g>
    </g>
</svg>